<svg width="516" height="186" viewBox="0 0 516 186" fill="none" xmlns="http://www.w3.org/2000/svg">
<rect x="361.993" y="30.2945" width="9" height="111.08" rx="4.5" transform="rotate(16.4595 361.993 30.2945)" fill="#B38E40" stroke="black"/>
<rect x="292.652" y="131.5" width="90.6306" height="2.35528" rx="1.17764" fill="#D9D9D9" stroke="black"/>
<path d="M293.539 134C293.539 134.575 287.846 149.573 285 157H296.05C297.139 156.281 299.365 154.413 299.566 152.688C299.817 150.531 301.575 157 303.082 157H315.5H344.269H361.824H374.406H378.5H395L383.447 134H330.708H293.539Z" fill="white"/>
<path d="M293.539 134C293.539 134.575 287.846 149.573 285 157H296.05C297.139 156.281 299.365 154.413 299.566 152.688C299.817 150.531 301.575 157 303.082 157M293.539 134H383.447M293.539 134H330.708M395 157L383.447 134M395 157H374.406M395 157H378.5M383.447 134H330.708M303.082 141.188L299.619 152.413M329.703 146.219L328.699 156.281M340.5 148L341.5 156.281M358.148 146.938L361.824 157M361.824 157H344.269M361.824 157H374.406M371.553 142L378.5 157M378.5 157H374.406M303.082 157C304.288 157 331.043 157 344.269 157M303.082 157H315.5M344.269 157H374.406M344.269 157H315.5M317.874 148L315.5 157M330.708 134L330.205 138.312" stroke="black"/>
<path d="M278.726 127.784C269.339 127.784 261.787 125.437 256.07 120.744C250.438 116.051 247.622 108.797 247.622 98.984C247.622 91.4747 249.115 84.3493 252.102 77.608C255.088 70.7813 259.056 64.552 264.006 58.92C269.04 53.288 274.587 48.4667 280.646 44.456C277.318 44.0293 273.947 43.6027 270.534 43.176C267.12 42.7493 263.75 42.536 260.422 42.536C256.582 42.536 253.126 43.048 250.054 44.072C247.067 45.096 244.251 47.0587 241.606 49.96C240.838 50.8133 240.24 51.5813 239.814 52.264C239.387 52.9467 239.174 53.8853 239.174 55.08C239.174 57.0427 239.515 58.4507 240.198 59.304C240.88 60.1573 241.691 60.712 242.63 60.968C243.568 61.224 244.464 61.3947 245.318 61.48C246.171 61.5653 246.726 61.8213 246.982 62.248C246.896 62.504 246.598 62.7173 246.086 62.888C245.574 62.9733 245.147 63.016 244.806 63.016C243.525 63.016 242.416 62.7173 241.478 62.12C240.624 61.5227 239.856 60.968 239.174 60.456C238.576 59.8587 238.022 59.56 237.51 59.56C237.339 59.56 237.168 59.6453 236.998 59.816C236.912 59.9867 236.742 60.072 236.486 60.072C235.803 60.072 235.419 59.6027 235.334 58.664C235.248 57.64 235.206 56.9573 235.206 56.616C235.206 55.6773 235.59 54.6107 236.358 53.416C237.126 52.2213 237.808 51.2827 238.406 50.6C242.075 46.1627 246 43.048 250.182 41.256C254.448 39.464 259.398 38.568 265.03 38.568C268.699 38.568 272.326 38.824 275.91 39.336C279.494 39.7627 283.078 40.2747 286.662 40.872C290.843 38.568 295.28 36.8613 299.974 35.752C304.667 34.5573 309.36 33.96 314.054 33.96C316.784 33.96 319.643 34.2587 322.63 34.856C325.616 35.368 328.39 36.264 330.95 37.544C333.595 38.824 335.728 40.5733 337.35 42.792C338.971 45.0107 339.782 47.784 339.782 51.112C339.782 53.7573 339.312 56.36 338.374 58.92C338.374 59.2613 338.288 59.56 338.118 59.816C338.032 59.9867 337.904 60.2 337.734 60.456C337.136 61.5653 336.539 62.5893 335.942 63.528C335.43 64.3813 334.406 64.808 332.87 64.808C331.76 64.808 331.206 64.2107 331.206 63.016C331.206 62.5893 331.206 62.1627 331.206 61.736C331.291 61.224 331.376 60.7973 331.462 60.456C324.635 56.7013 317.211 53.5867 309.19 51.112C301.254 48.552 293.446 46.5893 285.766 45.224C281.84 48.1253 278.043 51.5813 274.374 55.592C270.704 59.6027 267.376 63.9973 264.39 68.776C261.488 73.4693 259.184 78.376 257.478 83.496C255.771 88.616 254.918 93.6933 254.918 98.728C254.918 104.445 256.198 109.224 258.758 113.064C261.318 116.904 264.774 119.763 269.126 121.64C273.478 123.517 278.384 124.456 283.846 124.456C288.539 124.456 293.275 123.731 298.054 122.28C302.918 120.915 307.526 118.995 311.878 116.52C316.23 113.96 320.027 111.016 323.27 107.688C325.574 105.299 327.92 102.483 330.31 99.24C332.784 95.9973 334.662 92.7973 335.942 89.64C335.942 89.5547 336.027 89.2987 336.198 88.872C336.454 88.4453 336.624 88.232 336.71 88.232C336.88 88.232 336.966 88.488 336.966 89C337.051 89.512 337.094 89.8107 337.094 89.896C337.094 90.3227 337.051 91.304 336.966 92.84C336.966 94.2907 336.88 95.2293 336.71 95.656C335.515 99.4107 333.211 102.995 329.798 106.408C326.47 109.736 322.587 112.765 318.15 115.496C313.798 118.227 309.318 120.531 304.71 122.408C300.187 124.285 296.091 125.608 292.422 126.376C290.203 126.803 287.942 127.144 285.638 127.4C283.334 127.656 281.03 127.784 278.726 127.784ZM332.486 54.824C332.571 54.312 332.614 53.8 332.614 53.288C332.699 52.776 332.742 52.2213 332.742 51.624C332.742 47.784 331.675 44.7973 329.542 42.664C327.408 40.4453 324.763 38.9093 321.606 38.056C318.448 37.1173 315.248 36.648 312.006 36.648C308.592 36.648 305.051 37.0747 301.382 37.928C297.712 38.696 294.342 39.9333 291.27 41.64C298.352 43.0053 305.35 44.7973 312.262 47.016C319.174 49.2347 325.915 51.8373 332.486 54.824Z" fill="#159ADD"/>
<path d="M209.592 121.266L203.644 135.572L189.369 169.907C186.77 176.158 187.549 178.171 188.263 178.396L201.334 183.83C201.895 184.063 203.651 183.004 206.188 176.9L229.187 121.582C234.046 108.314 243.258 81.5691 241.24 80.73L235.353 78.2825C233.307 80.0418 229.153 84.6539 228.913 89.0283C229.894 89.4362 231.791 91.1199 231.531 94.5915C231.272 98.063 229.245 98.1151 228.263 97.7072C226.862 97.1245 223.741 96.722 222.473 99.774C220.886 103.589 222.616 106.545 222.664 108.803C222.712 111.06 215.636 111.474 214.398 112.078C213.408 112.561 210.782 118.404 209.592 121.266Z" stroke="black" stroke-width="3"/>
<path d="M240.027 72.4454L237.339 78.9091L240.109 80.0608L242.797 73.5971L240.027 72.4454Z" fill="#D9D9D9"/>
<path d="M244.643 74.3649L242.797 73.5971L240.109 80.0608L241.956 80.8286L244.643 74.3649Z" fill="#D9D9D9"/>
<path d="M241.956 80.8286C242.572 81.0845 243.956 81.227 244.571 79.7496L245.722 76.9795C245.978 76.3639 246.121 74.9792 244.643 74.3649L241.956 80.8286Z" fill="#D9D9D9"/>
<path d="M238.18 71.6777L235.493 78.1413L237.339 78.9091L240.027 72.4454L238.18 71.6777Z" fill="#D9D9D9"/>
<path d="M235.565 72.7566L234.414 75.5267C234.158 76.1423 234.015 77.5271 235.493 78.1413L238.18 71.6777C237.564 71.4217 236.179 71.2792 235.565 72.7566Z" fill="#D9D9D9"/>
<path d="M235.493 78.1413C234.015 77.5271 234.158 76.1423 234.414 75.5267M235.493 78.1413L238.18 71.6777M235.493 78.1413L237.339 78.9091M241.956 80.8286C242.572 81.0845 243.956 81.227 244.571 79.7496M241.956 80.8286L240.109 80.0608M241.956 80.8286L244.643 74.3649M244.571 79.7496C245.185 78.2722 245.594 77.2873 245.722 76.9795M244.571 79.7496L245.722 76.9795M245.722 76.9795C245.978 76.3639 246.121 74.9792 244.643 74.3649M244.643 74.3649C244.181 74.1727 243.526 73.9003 242.797 73.5971M244.643 74.3649L242.797 73.5971M238.18 71.6777C237.564 71.4217 236.179 71.2792 235.565 72.7566M238.18 71.6777C238.653 71.8743 239.306 72.1458 240.027 72.4454M238.18 71.6777L240.027 72.4454M235.565 72.7566C234.951 74.234 234.542 75.2189 234.414 75.5267M235.565 72.7566L234.414 75.5267M240.027 72.4454L237.339 78.9091M240.027 72.4454C240.917 72.8158 241.912 73.2292 242.797 73.5971M240.027 72.4454L242.797 73.5971M237.339 78.9091L240.109 80.0608M242.797 73.5971L240.109 80.0608" stroke="black"/>
<path d="M250.568 75.7454L245.028 73.442L235.794 69.603C232.167 74.1597 224.888 74.9961 221.798 74.6139C226.259 74.3027 230.781 69.5043 232.484 67.144L229.714 65.9923L231.634 61.3755L247.331 67.9017C252.502 70.0516 251.644 74.0266 250.568 75.7454Z" fill="#161616"/>
<path d="M247.331 67.9017C252.502 70.0516 251.644 74.0266 250.568 75.7454L245.028 73.442L235.794 69.603C232.167 74.1597 224.888 74.9961 221.798 74.6139C226.259 74.3027 230.781 69.5043 232.484 67.144L229.714 65.9923M247.331 67.9017C242.16 65.7519 234.712 62.6551 231.634 61.3755M247.331 67.9017L231.634 61.3755M231.634 61.3755L229.714 65.9923M231.634 61.3755L228.864 60.2238L226.944 64.8406L229.714 65.9923" stroke="black"/>
<path d="M226.132 59.6702L223.132 56.6702M222.132 55.6702L220.132 53.6702M224.132 61.6702L218.132 56.6702M222.132 63.6702L215.132 60.6702M223.132 66.6702L219.132 65.6702M217.132 65.6702L213.132 64.6702" stroke="#159ADD"/>
<path d="M214.139 115.494C220.49 115.788 221.897 117.73 221.807 118.664C221.844 119.65 222.149 121.719 223.069 122.099C223.989 122.48 227.392 120.001 228.978 118.714L206.149 173.385C204.766 176.698 201.692 183.198 200.465 182.691L189.73 178.253C189.219 178.042 189.027 175.631 192.348 167.679L214.139 115.494Z" fill="#159ADD"/>
<path d="M214.139 115.494C220.49 115.788 221.897 117.73 221.807 118.664C221.844 119.65 222.149 121.719 223.069 122.099C223.989 122.48 227.392 120.001 228.978 118.714L206.149 173.385C204.766 176.698 201.692 183.198 200.465 182.691M214.139 115.494C208.259 129.576 195.668 159.727 192.348 167.679M214.139 115.494L192.348 167.679M200.465 182.691C199.238 182.184 192.797 179.521 189.73 178.253M200.465 182.691L189.73 178.253M189.73 178.253C189.219 178.042 189.027 175.631 192.348 167.679" stroke="#159ADD"/>
<ellipse cx="0.834191" cy="1.60645" rx="0.834191" ry="1.60645" transform="matrix(0.972115 0.234503 -0.297809 0.954626 212.299 126.668)" fill="#EFEFEF"/>
<ellipse cx="1.24516" cy="3.2224" rx="1.24516" ry="3.2224" transform="matrix(0.899942 0.436009 -0.417646 0.90861 213.647 118.305)" fill="white"/>
<path d="M247.132 68.6702C247.849 68.9774 248.968 69.5865 249.632 70.2888C250.049 70.7297 250.287 71.2074 250.132 71.6702" stroke="#95B7C8"/>
<path d="M179.332 60.6255C176.337 60.2897 170.346 60.424 170.346 63.6476C170.346 66.8712 167.018 67.0056 165.354 66.6698C160.694 66.334 151.697 66.0406 155.691 74.0996C159.685 82.1587 152.862 79.8081 149.201 79.1365C147.703 78.9686 145.883 81.0753 147.88 84.2989C148.497 85.295 148.813 86.4769 148.929 87.6992C149.189 90.4328 148.455 93.3681 147.88 94.8764L156 105.5L169 118C172.2 121.6 183.824 126.5 185.324 127.5C188.824 129.5 191 130 197 132C201.8 133.6 210.5 136.167 212.5 136C214 135.833 221.9 136.3 225.5 133.5C233.5 127.9 236 122.5 236 122.5C237.6 119.7 238.333 115.333 238.5 113.5C238.9 108.7 237.667 103.833 237 102L233 114.5L229 119.5C225 123.5 221.333 125 219 125C212.6 126.2 207.851 121.861 206 121C203.6 119.543 198 114.559 195.5 111.5C190.3 107.9 185 97.5 183 93.5C179.702 88.8566 176.191 76.4729 179.332 60.6255Z" fill="#2CE5BA" stroke="#0B0B0B"/>
<path d="M150 92C165.636 111.042 185.242 120.295 187.364 121L169.636 107.247L159.182 96.6681L150 85C151.091 86.6926 150 90.4131 150 92Z" fill="#E2E2E2"/>
<path d="M158.136 80.3396C158.636 79.6344 159.273 77.4833 157.818 74.5212C165.818 87.216 170.091 91.7543 171 92.4366L191 114.722C185.394 110.314 170.973 97.2662 158.136 80.3396Z" fill="#E2E2E2"/>
<path d="M171.455 65.1539C171.152 66.3882 169.636 68.645 166 67.7987C165.345 69.3228 172.573 82.0863 175.409 86.1539C174.135 82.9963 171.2 69.3023 171.455 65.1539Z" fill="#E2E2E2"/>
<path d="M175.409 86.1539C172.573 82.0863 165.345 69.3228 166 67.7987C169.636 68.645 171.152 66.3882 171.455 65.1539C171.2 69.3023 174.135 82.9963 175.409 86.1539ZM175.409 86.1539C175.723 86.6038 172.092 81.0289 172.364 81.3976C172.015 81.1948 175.651 86.7542 175.409 86.1539ZM150 92C165.636 111.042 185.242 120.295 187.364 121L169.636 107.247L159.182 96.6681L150 85C151.091 86.6926 150 90.4131 150 92ZM158.136 80.3396C158.636 79.6344 159.273 77.4833 157.818 74.5212C165.818 87.216 170.091 91.7543 171 92.4366L191 114.722C185.394 110.314 170.973 97.2662 158.136 80.3396Z" stroke="#2CE5BA"/>
<path d="M27.1895 136.36C22.8375 136.36 18.6562 135.293 14.6455 133.16C10.6348 131.027 7.69083 127.955 5.8135 123.944C4.61883 121.384 3.7655 118.696 3.2535 115.88C2.7415 112.979 2.4855 110.12 2.4855 107.304C2.4855 106.877 2.4855 106.109 2.4855 105C2.57083 103.805 2.69883 102.525 2.8695 101.16C3.04017 99.7093 3.2535 98.5147 3.5095 97.576C3.7655 96.552 4.1495 96.04 4.6615 96.04C4.6615 96.04 4.70417 96.0827 4.7895 96.168C4.87483 96.168 4.9175 96.2107 4.9175 96.296C5.34417 97.2347 5.5575 98.6427 5.5575 100.52C5.5575 102.312 5.60017 103.805 5.6855 105C6.02683 107.901 6.66683 111.059 7.6055 114.472C8.54417 117.8 9.86683 120.915 11.5735 123.816C13.3655 126.717 15.5415 129.107 18.1015 130.984C20.6615 132.861 23.7335 133.8 27.3175 133.8C31.2428 133.8 34.9975 132.563 38.5815 130.088C42.2508 127.613 45.6642 124.371 48.8215 120.36C51.9788 116.349 54.8802 112.04 57.5255 107.432C60.1708 102.824 62.4748 98.3867 64.4375 94.12C66.4855 89.768 68.1495 86.056 69.4295 82.984C71.3068 78.376 73.1415 73.7253 74.9335 69.032C76.8108 64.2533 78.4322 59.4747 79.7975 54.696C80.0535 53.7573 80.3095 52.776 80.5655 51.752C80.9068 50.728 81.1202 49.7467 81.2055 48.808C80.2668 47.6133 79.2428 46.4613 78.1335 45.352C77.1095 44.2427 76.0002 43.2187 74.8055 42.28C71.7335 39.8907 68.2348 37.8 64.3095 36.008C60.3842 34.1307 56.3308 32.68 52.1495 31.656C48.0535 30.5467 44.0428 29.992 40.1175 29.992C37.3868 29.992 34.7415 30.4187 32.1815 31.272C29.7068 32.04 27.7015 33.3627 26.1655 35.24C24.6295 37.1173 23.8615 39.6773 23.8615 42.92C23.8615 43.6027 23.8615 44.328 23.8615 45.096C23.9468 45.864 23.9895 46.5893 23.9895 47.272C23.9895 47.6133 23.9468 48.168 23.8615 48.936C23.7762 49.6187 23.5202 49.96 23.0935 49.96C22.5815 49.96 22.1975 49.576 21.9415 48.808C21.6855 48.04 21.4722 47.2293 21.3015 46.376C21.2162 45.5227 21.1735 44.9253 21.1735 44.584C21.1735 43.3893 21.2588 42.28 21.4295 41.256C21.6855 40.1467 21.9415 39.0373 22.1975 37.928C23.3068 33.2347 25.6535 29.9067 29.2375 27.944C32.9068 25.896 36.9602 24.872 41.3975 24.872C44.8962 24.872 48.6082 25.384 52.5335 26.408C56.5442 27.3467 60.5122 28.712 64.4375 30.504C68.3628 32.2107 72.0322 34.216 75.4455 36.52C78.8588 38.824 81.7175 41.2987 84.0215 43.944C84.2775 43.688 84.7042 43.2613 85.3015 42.664C85.8988 41.9813 86.4962 41.3413 87.0935 40.744C87.6908 40.1467 88.1175 39.848 88.3735 39.848C88.8002 39.848 89.0135 40.104 89.0135 40.616C89.0135 41.896 88.8428 43.2187 88.5015 44.584C88.2455 45.9493 87.9468 47.272 87.6055 48.552C90.6775 52.9893 93.2375 58.1947 95.2855 64.168C97.4188 70.056 98.9975 76.2 100.022 82.6C101.131 88.9147 101.686 94.9307 101.686 100.648C101.686 101.331 101.686 102.013 101.686 102.696C101.686 103.379 101.643 104.061 101.558 104.744C105.056 98.5147 108.939 92.2427 113.206 85.928C117.558 79.6133 122.251 73.5973 127.286 67.88C132.32 62.0773 137.611 56.9573 143.158 52.52C144.779 51.24 146.4 50.0453 148.021 48.936C149.728 47.7413 151.435 46.5893 153.142 45.48L153.654 45.096C154.336 43.816 155.147 42.4507 156.086 41C156.854 40.488 157.622 40.232 158.39 40.232C158.56 40.232 159.03 40.4027 159.798 40.744C160.566 41 160.992 41.1707 161.078 41.256C163.467 40.232 165.942 39.336 168.502 38.568C171.062 37.8 173.664 37.416 176.31 37.416C176.992 37.416 178.059 37.544 179.51 37.8C181.046 37.9707 182.454 38.2693 183.734 38.696C185.099 39.1227 185.782 39.7627 185.782 40.616C185.782 40.7867 185.739 41.0427 185.654 41.384C185.568 41.64 185.483 41.8533 185.398 42.024L184.246 44.2C183.819 45.1387 183.478 46.1627 183.222 47.272C182.966 48.296 182.667 49.2773 182.326 50.216C182.24 50.3867 182.07 50.8987 181.814 51.752C181.558 52.52 181.302 52.904 181.046 52.904H180.79C180.278 52.5627 179.936 52.0933 179.766 51.496C179.68 50.8987 179.638 50.1733 179.638 49.32C179.638 48.1253 179.595 46.888 179.51 45.608C179.424 44.2427 178.912 43.0907 177.974 42.152C177.12 41.2133 175.414 40.744 172.854 40.744C170.55 40.744 168.288 41.128 166.07 41.896C163.936 42.664 161.888 43.6027 159.926 44.712C158.048 47.3573 156.043 51.0267 153.91 55.72C151.862 60.4133 149.814 65.6187 147.766 71.336C145.803 77.0533 143.968 82.8133 142.262 88.616C140.64 94.3333 139.318 99.6667 138.294 104.616C137.355 109.48 136.886 113.405 136.886 116.392C136.886 118.355 137.142 120.189 137.654 121.896C138.251 123.688 139.744 124.584 142.133 124.584C143.584 124.584 144.608 124.072 145.206 123.048C145.803 122.024 146.443 121.384 147.126 121.128C147.296 121.213 147.382 121.427 147.382 121.768C147.382 123.133 146.656 124.328 145.206 125.352C143.84 126.376 142.262 127.144 140.47 127.656C138.763 128.253 137.312 128.552 136.118 128.552C134.24 128.552 132.875 128.04 132.021 127.016C131.168 125.992 130.614 124.712 130.358 123.176C130.187 121.64 130.102 120.147 130.102 118.696C130.102 115.368 130.528 111.443 131.382 106.92C132.32 102.312 133.515 97.448 134.965 92.328C136.502 87.208 138.166 82.088 139.958 76.968C141.75 71.848 143.584 67.0267 145.462 62.504C147.339 57.9813 149.088 54.0987 150.71 50.856C144.566 55.464 138.635 60.84 132.918 66.984C127.2 73.0427 122.038 79.5707 117.43 86.568C112.822 93.48 109.11 100.605 106.294 107.944C105.952 108.712 105.654 109.651 105.398 110.76C105.142 111.869 105.014 112.851 105.014 113.704C105.014 114.216 104.63 114.685 103.862 115.112C103.179 115.539 102.411 115.923 101.558 116.264C100.704 116.605 100.107 116.989 99.7655 117.416C98.9975 118.355 98.3148 119.165 97.7175 119.848C97.2055 120.445 96.3095 120.957 95.0295 121.384C95.1148 119.677 95.1575 118.013 95.1575 116.392C95.2428 114.771 95.2855 113.149 95.2855 111.528C95.2855 105.725 94.9868 99.5387 94.3895 92.968C93.7922 86.3973 92.7682 79.912 91.3175 73.512C89.9522 67.0267 87.9895 61.1813 85.4295 55.976C83.6375 61.352 81.8028 66.728 79.9255 72.104C78.1335 77.48 76.1708 82.8133 74.0375 88.104C72.2455 92.456 70.0695 97.0213 67.5095 101.8C65.0348 106.493 62.1762 111.016 58.9335 115.368C55.6908 119.72 52.1068 123.603 48.1815 127.016C44.2562 130.515 39.9895 133.16 35.3815 134.952C34.1015 135.464 32.7362 135.805 31.2855 135.976C29.9202 136.232 28.5548 136.36 27.1895 136.36Z" fill="#159ADD"/>
<path d="M359.999 123.512C355.049 123.512 352.575 120.995 352.575 115.96C352.575 112.205 353.343 108.195 354.879 103.928C356.415 99.576 358.42 95.4373 360.895 91.512C363.369 87.5013 365.972 84.2587 368.703 81.784C371.945 78.968 375.743 77.56 380.095 77.56C381.119 77.56 382.356 77.688 383.807 77.944C385.343 78.2 386.665 78.712 387.775 79.48C388.884 80.1627 389.439 81.1867 389.439 82.552C389.439 84.5147 388.713 86.776 387.263 89.336C385.812 91.8107 384.489 93.816 383.295 95.352C383.721 95.4373 384.233 95.5653 384.831 95.736C385.513 95.9067 385.854 96.248 385.854 96.76C385.854 97.016 385.641 97.144 385.215 97.144C384.447 97.144 383.679 97.0587 382.911 96.888C382.143 96.7173 381.375 96.632 380.607 96.632C377.705 96.632 374.719 97.0587 371.647 97.912C368.66 98.7653 365.801 99.6613 363.071 100.6C362.217 102.648 361.449 104.909 360.767 107.384C360.169 109.859 359.871 112.205 359.871 114.424C359.871 116.045 360.169 117.496 360.767 118.776C361.449 120.056 362.729 120.696 364.607 120.696C366.911 120.696 369.257 120.056 371.647 118.776C374.121 117.411 376.468 115.704 378.687 113.656C380.991 111.523 383.039 109.304 384.831 107C386.623 104.696 388.031 102.605 389.055 100.728C389.14 100.813 389.183 100.984 389.183 101.24C389.183 102.008 388.713 103.075 387.775 104.44C386.836 105.72 385.855 107 384.831 108.28C383.892 109.56 383.337 110.499 383.167 111.096C383.081 111.693 382.911 112.205 382.655 112.632C382.484 113.059 382.271 113.528 382.015 114.04C380.564 115.491 378.473 116.984 375.743 118.52C373.097 119.971 370.324 121.165 367.423 122.104C364.607 123.043 362.132 123.512 359.999 123.512ZM364.863 96.504C367.081 96.0773 369.257 95.736 371.391 95.48C373.609 95.224 375.828 95.096 378.047 95.096C378.729 95.096 379.412 95.096 380.095 95.096C380.777 95.096 381.46 95.1387 382.143 95.224C382.825 93.7733 383.38 92.1947 383.807 90.488C384.319 88.7813 384.575 87.1173 384.575 85.496C384.575 84.216 384.319 82.936 383.807 81.656C383.295 80.2907 382.185 79.608 380.479 79.608C378.857 79.608 377.193 80.2907 375.487 81.656C373.865 83.0213 372.543 84.2587 371.519 85.368C370.153 86.9893 368.916 88.7813 367.807 90.744C366.783 92.6213 365.801 94.5413 364.863 96.504ZM391.15 123.256C389.784 123.256 388.888 122.744 388.462 121.72C388.12 120.611 387.95 119.501 387.95 118.392C387.95 114.381 388.718 110.072 390.254 105.464C391.79 100.856 393.795 96.4613 396.27 92.28C398.744 88.0133 401.432 84.5147 404.333 81.784C407.406 78.968 411.032 77.56 415.214 77.56C416.92 77.56 418.584 77.7733 420.206 78.2C421.912 78.5413 423.576 79.0533 425.198 79.736C426.648 78.712 428.227 77.816 429.934 77.048C431.64 76.28 433.39 75.896 435.182 75.896C435.608 75.896 435.95 76.152 436.206 76.664V77.048C436.206 77.304 436.078 77.432 435.822 77.432C435.651 77.3467 435.48 77.304 435.31 77.304C433.944 77.304 432.451 78.3707 430.83 80.504C429.208 82.552 427.587 85.1973 425.966 88.44C424.344 91.6827 422.851 95.096 421.486 98.68C420.206 102.264 419.139 105.549 418.286 108.536C417.518 111.523 417.134 113.784 417.134 115.32C417.134 115.917 417.219 116.6 417.39 117.368C417.646 118.136 418.158 118.52 418.926 118.52C419.352 118.52 419.694 118.435 419.95 118.264C420.291 118.093 420.632 117.923 420.974 117.752C422.851 116.643 424.686 115.149 426.478 113.272C428.355 111.309 430.062 109.219 431.598 107C433.219 104.696 434.542 102.605 435.566 100.728C435.651 100.813 435.694 100.984 435.694 101.24C435.694 101.752 435.395 102.52 434.798 103.544C434.2 104.483 433.518 105.507 432.75 106.616C431.982 107.725 431.256 108.707 430.574 109.56C429.976 110.413 429.678 110.925 429.678 111.096C429.592 111.693 429.464 112.205 429.294 112.632C429.123 112.973 428.867 113.443 428.526 114.04C427.416 115.149 426.008 116.429 424.302 117.88C422.595 119.331 420.803 120.611 418.926 121.72C417.134 122.744 415.384 123.256 413.678 123.256C411.032 123.256 409.71 121.848 409.71 119.032C409.71 117.325 410.051 115.363 410.734 113.144C411.502 110.84 412.355 108.579 413.294 106.36C414.318 104.056 415.214 102.136 415.982 100.6C415.982 100.515 415.982 100.387 415.982 100.216C415.982 100.045 415.939 99.96 415.854 99.96C415.768 99.96 415.64 100.045 415.47 100.216C414.446 101.581 412.952 103.544 410.99 106.104C409.027 108.664 406.851 111.267 404.462 113.912C402.158 116.472 399.811 118.691 397.422 120.568C395.032 122.36 392.942 123.256 391.15 123.256ZM396.782 117.752C397.72 117.752 398.872 117.155 400.238 115.96C401.688 114.68 403.182 113.187 404.718 111.48C406.339 109.688 407.747 107.981 408.942 106.36C410.222 104.739 411.118 103.544 411.63 102.776C412.654 101.24 413.806 99.32 415.086 97.016C416.451 94.712 417.603 92.3227 418.542 89.848C419.566 87.3733 420.078 85.2827 420.078 83.576C420.078 80.9307 418.755 79.608 416.11 79.608C414.574 79.608 412.952 80.2907 411.246 81.656C409.539 83.0213 408.174 84.2587 407.15 85.368C406.04 86.7333 404.76 88.696 403.31 91.256C401.944 93.816 400.664 96.5893 399.47 99.576C398.275 102.563 397.251 105.421 396.398 108.152C395.63 110.883 395.246 113.144 395.246 114.936C395.246 115.448 395.331 116.045 395.502 116.728C395.672 117.411 396.099 117.752 396.782 117.752ZM426.484 124.664C426.399 124.664 426.356 124.621 426.356 124.536C426.356 124.195 426.527 123.853 426.868 123.512C427.124 123.171 427.295 122.915 427.38 122.744C427.978 121.805 428.703 120.227 429.556 118.008C430.325 115.704 431.093 113.144 431.861 110.328C432.714 107.427 433.482 104.525 434.165 101.624C434.933 98.6373 435.615 95.9067 436.213 93.432C436.81 90.9573 437.237 89.08 437.493 87.8C437.663 87.1173 437.834 86.2213 438.005 85.112C438.175 84.0027 438.431 82.8933 438.773 81.784C439.114 80.6747 439.498 79.9493 439.925 79.608C440.778 78.9253 441.93 78.328 443.381 77.816C444.917 77.304 446.495 76.92 448.117 76.664C449.738 76.3227 451.061 76.152 452.085 76.152C452.255 76.152 452.469 76.2373 452.725 76.408C452.981 76.5787 453.151 76.7493 453.237 76.92V77.304C453.237 77.56 453.151 77.688 452.981 77.688C452.81 77.6027 452.639 77.56 452.469 77.56C450.591 77.56 448.927 78.6267 447.477 80.76C446.026 82.808 444.789 85.368 443.765 88.44C442.741 91.4267 441.887 94.328 441.205 97.144C440.522 99.96 440.01 102.093 439.669 103.544C442.399 98.8507 445.514 94.3707 449.013 90.104C452.597 85.752 456.778 82.2533 461.557 79.608C462.154 79.2667 462.837 78.9253 463.604 78.584C464.373 78.1573 465.055 77.944 465.653 77.944C466.762 77.944 467.445 78.456 467.701 79.48C467.957 80.4187 468.085 81.3147 468.085 82.168C468.085 83.2773 467.701 84.8987 466.933 87.032C466.165 89.1653 465.269 91.2987 464.245 93.432C463.306 95.48 462.581 97.1013 462.069 98.296C461.557 99.6613 460.959 101.411 460.277 103.544C459.594 105.677 458.997 107.811 458.485 109.944C457.973 112.077 457.717 113.869 457.717 115.32C457.717 115.917 457.802 116.6 457.973 117.368C458.143 118.136 458.613 118.52 459.381 118.52C459.807 118.52 460.149 118.435 460.405 118.264C460.746 118.093 461.087 117.923 461.429 117.752C463.391 116.643 465.269 115.149 467.061 113.272C468.938 111.309 470.645 109.219 472.181 107C473.717 104.696 474.997 102.605 476.021 100.728C476.106 100.813 476.149 100.984 476.149 101.24C476.149 101.752 475.85 102.52 475.253 103.544C474.655 104.483 473.973 105.507 473.205 106.616C472.437 107.725 471.711 108.707 471.029 109.56C470.431 110.413 470.133 110.925 470.133 111.096C470.047 111.693 469.919 112.205 469.749 112.632C469.578 112.973 469.365 113.443 469.109 114.04C468.085 115.064 466.591 116.344 464.629 117.88C462.751 119.331 460.789 120.653 458.741 121.848C456.778 122.957 455.029 123.512 453.493 123.512C452.127 123.512 451.189 123 450.677 121.976C450.25 120.867 450.037 119.715 450.037 118.52C450.037 116.216 450.506 113.485 451.445 110.328C452.383 107.085 453.493 103.885 454.773 100.728C456.053 97.4853 457.119 94.7547 457.973 92.536C458.229 91.8533 458.613 90.7867 459.125 89.336C459.722 87.8853 460.021 86.8613 460.021 86.264C460.021 85.8373 459.935 85.368 459.765 84.856C459.679 84.344 459.295 84.088 458.613 84.088C457.759 84.088 456.65 84.6427 455.285 85.752C454.005 86.8613 453.023 87.7573 452.341 88.44C448.671 92.536 445.514 97.1013 442.869 102.136C440.223 107.085 438.005 112.205 436.213 117.496C435.957 118.179 435.786 118.691 435.701 119.032C435.701 119.288 435.359 119.629 434.677 120.056C434.421 120.227 433.61 120.696 432.245 121.464C430.965 122.232 429.727 122.957 428.532 123.64C427.252 124.323 426.57 124.664 426.484 124.664Z" fill="#159ADD"/>
<path d="M494.267 76.2042L494.275 76.2169L494.283 76.2291C495.577 78.2258 497.899 80.4877 499.864 82.2292C500.396 82.7008 500.904 83.137 501.364 83.5227C500.604 83.2872 499.73 83.0282 498.815 82.7804C497.436 82.4069 495.957 82.0562 494.634 81.8509C493.355 81.6526 492.14 81.5752 491.307 81.8022C490.521 81.9154 489.716 82.3166 488.924 82.8813C488.115 83.4584 487.284 84.2313 486.458 85.1214C484.807 86.9019 483.135 89.1949 481.644 91.4489C481.523 91.6319 481.403 91.8147 481.285 91.9971C481.366 91.7952 481.446 91.5921 481.527 91.3879C482.515 88.8729 483.431 86.187 483.94 83.8122C484.194 82.6248 484.349 81.501 484.356 80.5068C484.363 79.5341 484.229 78.6446 483.871 77.937C483.578 77.1248 482.816 76.1744 481.919 75.2417C480.991 74.277 479.854 73.2673 478.756 72.3535C478.102 71.809 477.459 71.2962 476.879 70.8446C477.377 70.9891 477.923 71.1396 478.501 71.2871C481.027 71.9324 484.227 72.5381 486.751 72.2973C487.541 72.222 488.351 71.839 489.147 71.2858C489.947 70.7287 490.77 69.9726 491.588 69.0974C493.225 67.3468 494.886 65.0735 496.37 62.833C496.49 62.651 496.61 62.4691 496.728 62.2877C496.647 62.4886 496.567 62.6908 496.487 62.894C495.506 65.3954 494.6 68.0618 494.108 70.4071C493.861 71.5797 493.715 72.6873 493.719 73.6627C493.723 74.6312 493.875 75.5148 494.267 76.2042Z" fill="#FFFF86" stroke="#9A9999"/>
</svg>

